<?xml version="1.0" encoding="utf-8"?>
<!-- Generator: Adobe Illustrator 16.0.0, SVG Export Plug-In . SVG Version: 6.00 Build 0)  -->
<!DOCTYPE svg PUBLIC "-//W3C//DTD SVG 1.1//EN" "http://www.w3.org/Graphics/SVG/1.1/DTD/svg11.dtd">
<svg version="1.1" id="レイヤー_1" xmlns="http://www.w3.org/2000/svg" xmlns:xlink="http://www.w3.org/1999/xlink" x="0px"
	 y="0px" width="320px" height="240px" viewBox="0 0 320 240" enable-background="new 0 0 320 240" xml:space="preserve">
<path opacity="0.1" fill="#333333" enable-background="new    " d="M123-68H27c-7.2,0-13,5.8-13,13V61c0,7.2,5.8,13,13,13h96
	c7.2,0,13-5.8,13-13V-55C136-62.2,130.2-68,123-68z"/>
<path fill="#0073CF" d="M123-71H27c-7.2,0-13,5.8-13,13V58c0,7.2,5.8,13,13,13h96c7.2,0,13-5.8,13-13V-58C136-65.2,130.2-71,123-71z
	"/>
<path fill="#FFFFFF" d="M123-69H27c-6.1,0-11,4.9-11,11V58c0,6.1,4.9,11,11,11h96c6.1,0,11-4.9,11-11V-58C134-64.1,129.1-69,123-69z
	"/>
<path opacity="0.1" enable-background="new    " d="M111,42H39c-3.9,0-7,3.1-7,7v11c0,3.9,3.1,7,7,7h72c3.9,0,7-3.1,7-7V49
	C118,45.1,114.9,42,111,42z"/>
<path fill="#FFE000" d="M111,40H39c-3.9,0-7,3.1-7,7v11c0,3.9,3.1,7,7,7h72c3.9,0,7-3.1,7-7V47C118,43.1,114.9,40,111,40z"/>
<path opacity="0.5" fill="#FFFFFF" enable-background="new    " d="M111,42H39c-2.2,0-4,1.8-4,4s1.8,4,4,4h72c2.2,0,4-1.8,4-4
	S113.2,42,111,42z"/>
<g>
	<path d="M60.3,46.3c-0.4,0.9-0.6,1.3-0.9,1.9h3.4v1.5H57c1.5,1.399,3.6,2.5,5.9,3.1l-0.8,1.7c-0.5-0.2-0.6-0.3-1.1-0.4v6.4H47.7V54
		c-0.1,0-0.2,0.1-0.9,0.3L46,52.7c3.4-0.9,5-2.3,5.7-2.9h-5.6v-1.5h3.2c-0.2-0.4-0.3-0.7-0.7-1.3l1.6-0.4c0.3,0.604,0.5,1,0.8,1.7
		h2.5v-1.9c-2.6,0.1-3.8,0.1-6.4,0.1l-0.3-1.6c1.9,0,8.6,0.1,13.901-0.801l0.8,1.601C59.1,46,57.9,46.1,55.1,46.3v2h2.4
		c0.5-0.899,0.8-1.7,0.9-2.2L60.3,46.3z M49.5,54.2v1.7h4.1v-1.7H49.5z M49.5,57.2V59h4.1v-1.8H49.5z M53.5,52.7v-2.8
		c-0.5,0.6-1.4,1.6-3.3,2.8H53.5z M58.4,52.7c-1.5-0.9-2.3-1.601-3.2-2.9v2.9H58.4z M55.2,54.2v1.7h4.2v-1.7H55.2z M55.2,57.2V59
		h4.2v-1.8H55.2z"/>
	<path d="M66.201,52c0.6,0,1.1,0,1.699,0c0.2-0.2,0.4-0.6,1-1.4c-0.9-1.1-1.6-1.7-2.6-2.4l0.9-1.4c0.199,0.101,0.5,0.3,0.5,0.4
		c0.699-1,1.1-1.8,1.6-2.9l1.801,0.601C70.5,46.1,70,46.8,68.9,48.3c0.5,0.5,0.701,0.7,0.9,0.9c0.801-1.101,1.301-2.101,1.9-3.101
		l1.7,0.695c-0.7,1.104-0.9,1.398-3.6,5.104c0.301,0,1.9-0.104,2.3-0.104c-0.2-0.8-0.301-1-0.5-1.3l1.5-0.5
		c0.6,1.3,0.8,1.896,1.199,3.5L72.7,54c-0.1-0.4-0.1-0.5-0.2-0.9c-0.3,0-1,0.104-1.5,0.104V60.9h-1.8v-7.5
		c-0.7,0.101-1.801,0.199-3,0.199L66.201,52L66.201,52z M68.6,54.8c0,1.101-0.3,3.7-0.6,4.9L66.4,59c0.5-1.5,0.7-3.1,0.7-4.4
		L68.6,54.8z M73.101,54.4c0.5,1.699,0.5,1.8,0.899,3.6l-1.6,0.3c-0.2-1.6-0.3-2.2-0.7-3.6L73.101,54.4z M74.601,44.7h7.8v13.9h0.9
		v1.8h-10.2v-1.8h1.5V44.7L74.601,44.7z M76.4,46.4v2.8h4.2v-2.8H76.4z M76.4,51v2.8h4.2V51H76.4z M76.4,55.4v3.2h4.2v-3.2H76.4z"/>
	<path d="M103,61c-3.2-1.2-6.2-4.3-7.5-8.2c-0.3,0.4-1.2,1.3-2.7,2.4v3.4c1.4-0.199,2.8-0.5,4.7-0.896v1.601
		c-2.1,0.5-6.9,1.303-8.999,1.604l-0.4-1.7C89.001,59.1,90,59,91,58.9v-2.6c-0.699,0.3-1.6,0.8-3.499,1.4l-0.7-1.8
		C90.6,55,92.7,53.1,93.2,52.7h-6.199v-1.6H94.5v-1.3h-6.299v-1.5H94.5v-1.2h-7.1v-1.6h7.1V44h1.8v1.5h7.101v1.6H96.3v1.2h6.2v1.5
		h-6.2v1.3h7.5v1.6h-6.6c0.2,0.399,0.5,1.399,1.399,2.6c0.301-0.2,1.601-1,3-2.399l1.301,1.305c-1.2,1-2.5,2-3.2,2.396
		c1.899,1.899,3.6,2.5,4.3,2.801L103,61z"/>
</g>
<path fill="#FFFFFF" d="M7.5,91C3.91,91,1,93.91,1,97.5s2.91,6.5,6.5,6.5s6.5-2.91,6.5-6.5S11.09,91,7.5,91z M7.5,102
	C5.015,102,3,99.985,3,97.5S5.015,93,7.5,93s4.5,2.015,4.5,4.5S9.985,102,7.5,102z"/>
<line fill="none" stroke="#FFFFFF" stroke-width="2" stroke-linecap="round" stroke-miterlimit="10" x1="12" y1="102" x2="16" y2="106"/>
<g>
	<path d="M202.001,23.6c2.301-0.2,4.301-0.1,4.301-2.399v-17c0-2.4-2.5-2.301-4.301-2.4V0.2h15.103c2.799,0,12.604,0.6,12.604,5.899
		c0,4.101-3.806,5.101-6,5.5V11.7c4.301,0.5,7.5,2.399,7.5,6.6c0,3.1-2.5,6.4-13.604,6.4h-15.603V23.6z M214.001,21.3
		c0,1.7,0.899,2.3,3,2.3c5.603,0,6.201-2.899,6.201-5.1c0-4.8-4.601-5.7-7.701-5.8h-1.5V21.3z M214.001,11.399
		c4.899,0,8.301-1.6,8.301-4.699c0-3.101-2.899-4.9-5.6-4.9c-2.601,0-2.601,0.5-2.701,1.3V11.399L214.001,11.399z"/>
	<path d="M257.001,8c-1.199-2.9-3.899-6.2-10.899-6.2c-2.601,0-5.396,0.8-5.396,3.2c0,2,2.5,2.8,5.194,3.399l7.396,2.101
		C255,11.1,260,13.6,260,17.6c0,4.5-4.102,7.7-12.4,7.7c-4.801,0-8.396-1.7-9.896-1.7c-1.104,0-1.699,1.101-1.897,1.7h-1.103v-9.1
		h1.103c1,3.699,3.897,7.399,12.104,7.399c5.396,0,6.198-1.899,6.198-3.7c0-2.5-3.604-2.899-6.803-4.1l-3.397-0.9
		c-8.104-2.1-9.199-5.3-9.199-7.399c0-2.4,1-7.5,11.699-7.5c4.101,0,7,1.7,8.5,1.7c1.198,0,1.301-0.801,1.601-1.5h1l0.399,7.699
		h-0.908V8L257.001,8z"/>
	<path d="M193.4,24.8v-1.3c-3.698-0.2-4.899,0.1-4.899-3v-19c3.5,0.1,8.801-0.2,9.801,5.2h1.5l-0.2-6.5h-29.396L170,6.7h1.501
		c1-5.4,6.201-5,9.801-5.2v18.899c0,3.101-1.2,2.801-4.899,3V24.7h17v0.1H193.4z"/>
</g>
<line fill="none" stroke="#0073CF" stroke-width="2" stroke-linecap="round" stroke-miterlimit="10" x1="81" y1="91" x2="99.001" y2="109"/>
<line fill="none" stroke="#0073CF" stroke-width="2" stroke-linecap="round" stroke-miterlimit="10" x1="99.001" y1="91" x2="81" y2="109"/>
<g>
	<path d="M188.212,106.801c-0.335,0.706-0.503,1.011-0.792,1.468h2.862v1.164h-4.843c1.295,1.094,3.047,1.926,5.057,2.382
		l-0.671,1.33c-0.427-0.166-0.502-0.194-0.897-0.332v4.959h-11.466v-4.987c-0.076,0.028-0.198,0.07-0.731,0.236l-0.729-1.302
		c2.878-0.692,4.266-1.746,4.873-2.286h-4.768v-1.164h2.756c-0.188-0.346-0.288-0.54-0.594-1.039l1.385-0.305
		c0.271,0.43,0.438,0.763,0.672,1.344h2.132v-1.51c-2.19,0.083-3.229,0.097-5.451,0.11l-0.272-1.232
		c1.66,0.027,7.344,0.069,11.877-0.637l0.688,1.246c-2.022,0.263-3.026,0.332-5.42,0.457v1.565h2.085
		c0.396-0.664,0.643-1.316,0.773-1.718L188.212,106.801z M178.984,112.924v1.315h3.472v-1.315H178.984z M178.984,115.25v1.358h3.472
		v-1.358H178.984z M182.456,111.773v-2.203c-0.44,0.458-1.156,1.205-2.849,2.203H182.456z M186.629,111.773
		c-1.295-0.692-1.936-1.261-2.756-2.217v2.217H186.629z M183.873,112.924v1.315h3.547v-1.315H183.873z M183.873,115.25v1.358h3.547
		v-1.358H183.873z"/>
	<path d="M192.54,111.205c0.549,0,0.897,0,1.433-0.027c0.137-0.166,0.381-0.457,0.883-1.108c-0.791-0.859-1.319-1.329-2.188-1.884
		l0.764-1.122c0.15,0.098,0.396,0.264,0.454,0.318c0.562-0.762,0.979-1.357,1.401-2.286l1.486,0.458
		c-0.502,0.9-0.896,1.496-1.842,2.674c0.426,0.373,0.608,0.567,0.762,0.72c0.645-0.858,1.127-1.648,1.582-2.382l1.416,0.554
		c-0.578,0.872-0.76,1.095-3.045,3.976c0.274-0.014,1.646-0.083,1.949-0.097c-0.214-0.638-0.271-0.749-0.41-0.998l1.293-0.415
		c0.521,1.011,0.701,1.496,1.021,2.729l-1.4,0.401c-0.076-0.304-0.092-0.387-0.184-0.678c-0.229,0.027-0.867,0.083-1.249,0.11v5.984
		h-1.491v-5.846c-0.578,0.055-1.523,0.125-2.527,0.194L192.54,111.205z M194.564,113.408c0.017,0.831-0.229,2.867-0.521,3.796
		l-1.354-0.541c0.412-1.163,0.562-2.438,0.596-3.407L194.564,113.408z M198.342,113.104c0.426,1.302,0.457,1.413,0.73,2.756
		l-1.355,0.264c-0.182-1.247-0.259-1.703-0.578-2.812L198.342,113.104z M199.666,105.554h6.624v10.818h0.792v1.358h-8.71v-1.358
		h1.294V105.554z M201.189,106.897v2.203h3.547v-2.203H201.189z M201.189,110.402v2.146h3.547v-2.146H201.189z M201.189,113.852
		v2.521h3.547v-2.521H201.189z"/>
	<path d="M223.089,118.187c-2.741-0.928-5.284-3.311-6.396-6.33c-0.289,0.291-0.989,1.025-2.271,1.856v2.618
		c1.176-0.18,2.393-0.416,3.977-0.734v1.261c-1.769,0.401-5.895,1.039-7.688,1.205l-0.318-1.316
		c0.762-0.068,1.603-0.138,2.512-0.234v-1.982c-0.573,0.264-1.365,0.597-2.969,1.081l-0.604-1.371
		c3.271-0.721,5.058-2.175,5.479-2.521h-5.285v-1.22h6.431v-0.997h-5.349v-1.164h5.349v-0.9h-6.095v-1.219h6.095v-1.136h1.535v1.136
		h6.028v1.219h-6.028v0.9h5.282v1.164h-5.282v0.997h6.382v1.22h-5.664c0.137,0.346,0.438,1.08,1.188,2.009
		c0.229-0.14,1.354-0.79,2.543-1.871l1.145,1.025c-1.021,0.789-2.146,1.538-2.74,1.87c1.584,1.482,3.03,1.952,3.672,2.175
		L223.089,118.187z"/>
</g>
<g>
	<path d="M183.684,62.822c-1.481,2.337-3.711,3.633-6.684,4.332V65.49c2.198-0.61,3.951-1.614,5.146-3.405
		c-1.576-0.737-2.744-1.156-4.332-1.575v-1.702c1.688,0.457,3.125,0.965,5.104,1.816c0.698-1.575,0.965-3.036,1.13-4.624h1.808
		c-0.166,1.753-0.569,3.607-1.371,5.348c1.271,0.635,2.336,1.245,3.343,1.906v2.071C186.527,64.422,185.258,63.622,183.684,62.822z"
		/>
	<path d="M189.514,66.506v-1.715h11.307v1.715H189.514z M190.581,58.566v-1.677h9.083v1.677H190.581z"/>
	<path d="M202.854,66.722v-1.537h5.817l0.584-5.615h-5.272v-1.55h7.146l-0.729,7.165h2.479v1.537H202.854z"/>
	<path d="M213.686,62.745v-1.677h9.317v1.677H213.686z"/>
</g>
<g>
	<path d="M180,155.002h5.166v4.543h-3.633v7.506H180V155.002z M181.533,156.838h2.166v-0.699h-2.166V156.838z M181.533,158.488
		h2.166v-0.729h-2.166V158.488z M181.586,164.805c2.391-1.018,3.303-2.168,3.659-2.615h-3.289v-1.396h4.188v-0.926h1.506v0.926
		h1.938v1.396h-1.938v3.447c0,0.58-0.33,1.109-1.109,1.109h-1.916l-0.211-1.48h1.413c0.212,0,0.317-0.012,0.317-0.303v-1.928
		c-0.938,1.24-2.537,2.561-3.738,3.143L181.586,164.805z M186.289,155.002h5.23v10.951c0,0.33-0.105,1.098-1.148,1.098h-1.863
		l-0.33-1.611h1.467c0.237,0,0.356-0.041,0.356-0.346v-5.549h-3.712V155.002L186.289,155.002z M187.77,156.838h2.231v-0.699h-2.231
		V156.838z M187.77,158.488h2.231v-0.729h-2.231V158.488z"/>
	<path d="M199.514,166.693c-2.457,0-4.506-0.951-4.506-4.312v-7.135h1.771v7.135c0,1.955,1.188,2.576,2.761,2.576
		c2.366,0,3.739-1.625,4.004-5.188h1.796C205.115,164.264,203.002,166.693,199.514,166.693z M201.15,157.537v-2.02h1.164v2.02
		H201.15z M202.883,157.537v-2.02h1.176v2.02H202.883z"/>
	<path d="M214.561,166.771c-2.551,0-4.531-0.91-4.531-2.562c0-0.938,0.818-1.98,2.634-1.98c1.856,0,3.062,1.07,3.362,1.295v1.506
		c1.229-0.324,2.154-1.057,2.154-2.32c0-1.201-1.058-2.088-3.117-2.088c-2.102,0-3.713,0.305-6.539,2.34v-1.877l6.485-4.102h-5.139
		v-1.598h8.388v1.387l-4.068,2.562c0.35-0.092,0.891-0.158,1.545-0.158c2.523,0,4.271,1.348,4.271,3.461
		C220.002,165.213,217.836,166.771,214.561,166.771z M212.538,163.654c-0.66,0-0.886,0.277-0.886,0.49
		c0,0.713,1.56,1.096,2.668,1.096c0.49,0,0.966-0.039,1.414-0.146C215.021,164.527,213.768,163.654,212.538,163.654z"/>
</g>
<line fill="none" stroke="#000000" stroke-width="3" stroke-linecap="round" stroke-miterlimit="10" x1="188.001" y1="173.502" x2="212.003" y2="189.502"/>
<line fill="none" stroke="#000000" stroke-width="3" stroke-linecap="round" stroke-miterlimit="10" x1="212.003" y1="173.502" x2="188.001" y2="189.502"/>
<rect x="195.001" y="138" width="10.001" height="5.002"/>
<path d="M216.002,124c0-1.656-1.343-2.999-2.999-3h-26.002c-1.657,0-3,1.344-3,3v14c0,1.656,1.343,3,3,3v0.002h7.002l-3.001,3h18
	l-2.686-3h6.687V141c1.656-0.001,2.999-1.344,2.999-3h0.001L216.002,124L216.002,124z M214.003,137c0,0.553-0.448,1-1,1h-26.002
	c-0.552,0-1-0.447-1-1v-13c0-0.553,0.448-1,1-1h26.002c0.552,0,1,0.447,1,1V137z"/>
<polygon points="188.001,135 188.001,125 209.002,125 "/>
<line fill="none" stroke="#000000" stroke-width="3" stroke-linecap="round" stroke-miterlimit="10" x1="188.001" y1="73.5" x2="212.003" y2="73.5"/>
<line fill="none" stroke="#000000" stroke-width="3" stroke-linecap="round" stroke-miterlimit="10" x1="188.001" y1="81.5" x2="212.003" y2="81.5"/>
<line fill="none" stroke="#000000" stroke-width="3" stroke-linecap="round" stroke-miterlimit="10" x1="188.001" y1="89.5" x2="212.003" y2="89.5"/>
<line fill="none" stroke="#000000" stroke-width="4" stroke-linecap="round" stroke-miterlimit="10" x1="281" y1="71" x2="286.001" y2="76"/>
<path d="M274.002,54c-5.523,0-10,4.477-10,10s4.477,10,10,10s10-4.477,10-10S279.525,54,274.002,54z M274.002,71
	c-3.865,0-7-3.134-7-7s3.135-7,7-7c3.866,0,7,3.134,7,7S277.868,71,274.002,71z"/>
<path fill="#80B9E7" d="M269,101c-4.418,0-8,3.582-8,8s3.582,8,8,8s8-3.582,8-8S273.418,101,269,101z M267.373,113.449
	c-0.186,0.151-0.408,0.224-0.63,0.224c-0.291,0-0.579-0.126-0.776-0.369c-0.349-0.428-0.283-1.058,0.145-1.407l3.562-2.897
	l-3.562-2.897c-0.428-0.349-0.488-0.979-0.145-1.407c0.348-0.428,0.979-0.494,1.406-0.145l5.47,4.449L267.373,113.449z"/>
<circle fill="#A4A4A4" cx="8" cy="218.002" r="8"/>
<circle fill="#FFFFFF" cx="8.001" cy="218.003" r="6"/>
<line fill="none" stroke="#A4A4A4" stroke-width="2" stroke-linecap="round" stroke-miterlimit="10" x1="13" y1="223.003" x2="19" y2="229.003"/>
</svg>
